<svg width="55" height="55" viewBox="0 0 55 55" fill="none" xmlns="http://www.w3.org/2000/svg">
<rect width="55" height="55" rx="12" fill="#09161C"/>
<path d="M23.6424 43.1488H32.0451C32.0451 45.1295 30.1545 46.75 27.8438 46.75C25.533 46.75 23.6424 45.1295 23.6424 43.1488ZM46.75 39.5476V41.3482H8.9375V39.5476L13.1389 35.9464V25.1429C13.1389 19.561 17.3403 14.6994 23.6424 13.0789V12.5387C23.6424 10.558 25.533 8.9375 27.8438 8.9375C30.1545 8.9375 32.0451 10.558 32.0451 12.5387V13.0789C38.3472 14.6994 42.5486 19.561 42.5486 25.1429V35.9464L46.75 39.5476ZM38.3472 25.1429C38.3472 20.1012 33.7257 16.1399 27.8438 16.1399C21.9618 16.1399 17.3403 20.1012 17.3403 25.1429V37.747H38.3472V25.1429Z" fill="white"/>
</svg>
