<svg width="55" height="55" viewBox="0 0 55 55" fill="none" xmlns="http://www.w3.org/2000/svg">
<rect width="55" height="55" rx="12" fill="#09161C"/>
<path fill-rule="evenodd" clip-rule="evenodd" d="M36.2465 31.6263C38.9532 31.6264 41.5553 32.567 43.5103 34.2518C45.4652 35.9367 46.622 38.2358 46.7395 40.6696L46.75 41.0799V44.8614C46.7494 45.3433 46.5444 45.8068 46.1768 46.1572C45.8093 46.5076 45.3069 46.7185 44.7724 46.7467C44.2379 46.775 43.7116 46.6185 43.301 46.3092C42.8904 45.9999 42.6266 45.5611 42.5633 45.0826L42.5486 44.8614V41.0799C42.5487 39.6331 41.9345 38.2409 40.8317 37.1883C39.729 36.1356 38.221 35.502 36.6163 35.4172L36.2465 35.4077H19.441C17.8335 35.4076 16.2867 35.9604 15.1172 36.953C13.9476 37.9455 13.2437 39.3028 13.1494 40.7471L13.1389 41.0799V44.8614C13.1383 45.3433 12.9333 45.8068 12.5657 46.1572C12.1982 46.5076 11.6958 46.7185 11.1613 46.7467C10.6268 46.775 10.1005 46.6185 9.6899 46.3092C9.27931 45.9999 9.01544 45.5611 8.9522 45.0826L8.9375 44.8614V41.0799C8.93766 38.6438 9.98268 36.3017 11.8547 34.5422C13.7266 32.7826 16.281 31.7414 18.9851 31.6357L19.441 31.6263H36.2465ZM27.8438 8.9375C30.6294 8.9375 33.301 9.93351 35.2708 11.7064C37.2406 13.4793 38.3472 15.8839 38.3472 18.3911C38.3472 20.8984 37.2406 23.303 35.2708 25.0759C33.301 26.8488 30.6294 27.8448 27.8438 27.8448C25.0581 27.8448 22.3865 26.8488 20.4167 25.0759C18.4469 23.303 17.3403 20.8984 17.3403 18.3911C17.3403 15.8839 18.4469 13.4793 20.4167 11.7064C22.3865 9.93351 25.0581 8.9375 27.8438 8.9375ZM27.8438 12.719C27.0161 12.719 26.1967 12.8657 25.432 13.1507C24.6674 13.4358 23.9727 13.8536 23.3875 14.3803C22.8023 14.907 22.3381 15.5323 22.0214 16.2205C21.7047 16.9087 21.5417 17.6463 21.5417 18.3911C21.5417 19.136 21.7047 19.8736 22.0214 20.5618C22.3381 21.25 22.8023 21.8753 23.3875 22.402C23.9727 22.9287 24.6674 23.3465 25.432 23.6316C26.1967 23.9166 27.0161 24.0633 27.8438 24.0633C29.5152 24.0633 31.1181 23.4657 32.3 22.402C33.4819 21.3383 34.1458 19.8955 34.1458 18.3911C34.1458 16.8868 33.4819 15.444 32.3 14.3803C31.1181 13.3166 29.5152 12.719 27.8438 12.719Z" fill="white"/>
</svg>
